<svg version="1.0" xmlns="http://www.w3.org/2000/svg" width="346.667" height="346.667" viewBox="0 0 260 260"><path d="M161.6 85.1c-15 3.5-29.3 18-33.6 33.9-3.1 11.5-.5 27.8 6.1 38.2 10.1 15.7 30.3 24.2 48.7 20.4 20.9-4.3 33.3-19.6 35.8-43.9l.6-6.7h-45.3l.3 6.7.3 6.8 13.7.3 13.6.3-.7 2.7c-3.8 13.1-13.3 20.1-27.1 20.2-12.7 0-22.4-6.2-27.9-17.9-2.2-4.8-2.6-6.9-2.6-15.1.1-7.5.5-10.5 2.2-14.2 2.9-6.3 8.7-12.4 14.7-15.6 4.4-2.3 6.3-2.7 13.6-2.6 9.9 0 15.3 2 21.9 8l4.1 3.7 5.6-5.3 5.5-5.2-3.6-3.4c-8.6-8.1-20.7-12.5-34-12.3-4.4.1-9.7.5-11.9 1zm-92 .7c-.7 1.1-35.6 90.1-35.6 90.7 0 .3 3.7.5 8.3.5h8.2l4.5-12.5 4.5-12.5h38l4.4 12.5 4.5 12.5h8.4c8.2 0 8.4 0 7.8-2.3-.3-1.2-8.2-21.8-17.5-45.7L88.2 85.5l-9-.3c-5-.1-9.3.1-9.6.6zm15.9 33.8c3.6 9.8 6.5 18.1 6.5 18.6 0 1-27 1.1-27 0-.1-1.2 13.3-37.2 13.7-36.8.2.2 3.3 8.4 6.8 18.2zm-34.3 78.6c-1.6 1.6-1.5 4.3.2 5.7 1 .8 22.5 1 79.1.9 72.8-.3 77.9-.4 78.9-2.1.8-1.2.8-2.2 0-3.5-1-1.6-6.1-1.7-79.1-2-59.7-.2-78.2.1-79.1 1z"/></svg>